# xmcd CD database file
#
# Track frame offsets:
#	150
#	34358
#	62270
#	79596
#	90348
#	102917
#	129407
#	163070
#	188744
#	209270
#	220034
#
# Disc length: 3172 seconds
#
# Revision: 0
# Processed by: cddbd v1.5.2PL0 Copyright (c) Steve Scherf et al.
# Submitted via: CDex 1.50
#
DISCID=880c620b
DTITLE=Olivier Py - Birds of Paradise
DYEAR=2013
DGENRE=Jazz
TTITLE0=miss pixelized
TTITLE1=mr light blue
TTITLE2=mr tiny gray #1 
TTITLE3=mr tiny gray #2
TTITLE4=mr tiny gray #3
TTITLE5=mr darkee ouzel
TTITLE6=lady red light
TTITLE7=little warble
TTITLE8=miss brown fudge
TTITLE9=épilogue
TTITLE10=saveur
EXTD=YEAR: 2013
EXTT0=
EXTT1=
EXTT2=
EXTT3=
EXTT4=
EXTT5=
EXTT6=
EXTT7=
EXTT8=
EXTT9=
EXTT10=
PLAYORDER=
